<mxfile host="app.diagrams.net" modified="2023-11-29T09:12:51.737Z" agent="Mozilla/5.0 (Macintosh; Intel Mac OS X 10_15_7) AppleWebKit/537.36 (KHTML, like Gecko) Chrome/119.0.0.0 Safari/537.36" etag="mwUpdNJSm_SSG5M3GWNr" version="22.1.4" type="device">
  <diagram name="Page-1" id="2YBvvXClWsGukQMizWep">
    <mxGraphModel dx="896" dy="622" grid="1" gridSize="10" guides="1" tooltips="1" connect="1" arrows="1" fold="1" page="1" pageScale="1" pageWidth="850" pageHeight="1100" math="0" shadow="0">
      <root>
        <mxCell id="0" />
        <mxCell id="1" parent="0" />
        <mxCell id="5p-cQJ673VyFYiMfOKw3-1" style="edgeStyle=elbowEdgeStyle;rounded=0;orthogonalLoop=1;jettySize=auto;html=1;elbow=vertical;curved=0;" parent="1" source="O33Dg_AS-0g0KVgm5leG-6" target="O33Dg_AS-0g0KVgm5leG-10" edge="1">
          <mxGeometry relative="1" as="geometry">
            <Array as="points">
              <mxPoint x="230" y="150" />
            </Array>
          </mxGeometry>
        </mxCell>
        <mxCell id="5p-cQJ673VyFYiMfOKw3-2" value="Selects QR Scan option in App" style="edgeLabel;html=1;align=center;verticalAlign=middle;resizable=0;points=[];" parent="5p-cQJ673VyFYiMfOKw3-1" vertex="1" connectable="0">
          <mxGeometry x="-0.0719" y="1" relative="1" as="geometry">
            <mxPoint y="1" as="offset" />
          </mxGeometry>
        </mxCell>
        <mxCell id="5p-cQJ673VyFYiMfOKw3-4" value="Scans QR code from relying party portal" style="edgeStyle=elbowEdgeStyle;rounded=0;orthogonalLoop=1;jettySize=auto;html=1;elbow=vertical;curved=0;" parent="1" source="O33Dg_AS-0g0KVgm5leG-6" target="O33Dg_AS-0g0KVgm5leG-20" edge="1">
          <mxGeometry x="-0.4754" relative="1" as="geometry">
            <Array as="points">
              <mxPoint x="300" y="230" />
            </Array>
            <mxPoint x="1" as="offset" />
          </mxGeometry>
        </mxCell>
        <mxCell id="5p-cQJ673VyFYiMfOKw3-9" value="Choose VC and clicks selfie" style="edgeStyle=elbowEdgeStyle;rounded=0;orthogonalLoop=1;jettySize=auto;html=1;elbow=vertical;curved=0;" parent="1" source="O33Dg_AS-0g0KVgm5leG-6" target="O33Dg_AS-0g0KVgm5leG-10" edge="1">
          <mxGeometry relative="1" as="geometry">
            <Array as="points">
              <mxPoint x="320" y="390" />
            </Array>
          </mxGeometry>
        </mxCell>
        <mxCell id="5p-cQJ673VyFYiMfOKw3-13" value="Choose voluntary information to be shared&lt;br&gt;and submits for online login" style="edgeStyle=elbowEdgeStyle;rounded=0;orthogonalLoop=1;jettySize=auto;html=1;elbow=vertical;curved=0;" parent="1" source="O33Dg_AS-0g0KVgm5leG-6" target="O33Dg_AS-0g0KVgm5leG-10" edge="1">
          <mxGeometry relative="1" as="geometry">
            <Array as="points">
              <mxPoint x="300" y="570" />
            </Array>
          </mxGeometry>
        </mxCell>
        <mxCell id="O33Dg_AS-0g0KVgm5leG-6" value="" style="shape=umlLifeline;perimeter=lifelinePerimeter;whiteSpace=wrap;html=1;container=1;dropTarget=0;collapsible=0;recursiveResize=0;outlineConnect=0;portConstraint=eastwest;newEdgeStyle={&quot;edgeStyle&quot;:&quot;elbowEdgeStyle&quot;,&quot;elbow&quot;:&quot;vertical&quot;,&quot;curved&quot;:0,&quot;rounded&quot;:0};participant=umlActor;fontStyle=0" parent="1" vertex="1">
          <mxGeometry x="65" y="10" width="20" height="830" as="geometry" />
        </mxCell>
        <mxCell id="O33Dg_AS-0g0KVgm5leG-8" value="User" style="text;html=1;align=center;verticalAlign=middle;resizable=0;points=[];autosize=1;strokeColor=none;fillColor=none;" parent="1" vertex="1">
          <mxGeometry x="85" y="20" width="50" height="30" as="geometry" />
        </mxCell>
        <mxCell id="5p-cQJ673VyFYiMfOKw3-3" value="Shows QR scanner camera" style="edgeStyle=elbowEdgeStyle;rounded=1;orthogonalLoop=1;jettySize=auto;html=1;elbow=vertical;curved=0;endArrow=open;endSize=12;dashed=1;" parent="1" source="O33Dg_AS-0g0KVgm5leG-10" target="O33Dg_AS-0g0KVgm5leG-6" edge="1">
          <mxGeometry relative="1" as="geometry">
            <Array as="points">
              <mxPoint x="220" y="190" />
            </Array>
          </mxGeometry>
        </mxCell>
        <mxCell id="5p-cQJ673VyFYiMfOKw3-6" value="Calls Esignet&amp;nbsp;/link-transaction API&lt;br&gt;and sends link code" style="edgeStyle=elbowEdgeStyle;rounded=0;orthogonalLoop=1;jettySize=auto;html=1;elbow=vertical;curved=0;" parent="1" source="O33Dg_AS-0g0KVgm5leG-10" target="O33Dg_AS-0g0KVgm5leG-20" edge="1">
          <mxGeometry relative="1" as="geometry">
            <Array as="points">
              <mxPoint x="500" y="260" />
              <mxPoint x="650" y="270" />
            </Array>
          </mxGeometry>
        </mxCell>
        <mxCell id="5p-cQJ673VyFYiMfOKw3-8" value="Shows all activated VCs and ask resident&lt;br&gt;to perform face auth against a VC" style="edgeStyle=elbowEdgeStyle;rounded=1;orthogonalLoop=1;jettySize=auto;html=1;elbow=vertical;curved=0;endArrow=open;endSize=12;dashed=1;" parent="1" source="O33Dg_AS-0g0KVgm5leG-10" target="O33Dg_AS-0g0KVgm5leG-6" edge="1">
          <mxGeometry relative="1" as="geometry">
            <Array as="points">
              <mxPoint x="180" y="340" />
            </Array>
          </mxGeometry>
        </mxCell>
        <mxCell id="5p-cQJ673VyFYiMfOKw3-12" value="Shows all essential and voluntary information&lt;br&gt;to be shared with relying party. Resident has option to &lt;br&gt;select or unselect voluntary information" style="edgeStyle=elbowEdgeStyle;rounded=1;orthogonalLoop=1;jettySize=auto;html=1;elbow=vertical;curved=0;endArrow=open;endSize=12;dashed=1;" parent="1" source="O33Dg_AS-0g0KVgm5leG-10" target="O33Dg_AS-0g0KVgm5leG-6" edge="1">
          <mxGeometry relative="1" as="geometry">
            <Array as="points">
              <mxPoint x="230" y="510" />
            </Array>
          </mxGeometry>
        </mxCell>
        <mxCell id="5p-cQJ673VyFYiMfOKw3-14" value="Calls&amp;nbsp;/authenticate API and sends WLA token (JWT)" style="edgeStyle=elbowEdgeStyle;rounded=0;orthogonalLoop=1;jettySize=auto;html=1;elbow=vertical;curved=0;" parent="1" source="O33Dg_AS-0g0KVgm5leG-10" target="O33Dg_AS-0g0KVgm5leG-20" edge="1">
          <mxGeometry relative="1" as="geometry">
            <Array as="points">
              <mxPoint x="470" y="610" />
              <mxPoint x="700" y="630" />
            </Array>
          </mxGeometry>
        </mxCell>
        <mxCell id="5p-cQJ673VyFYiMfOKw3-15" value="Calls /consent API and sends all chosen claims and scopes" style="edgeStyle=elbowEdgeStyle;rounded=0;orthogonalLoop=1;jettySize=auto;html=1;elbow=vertical;curved=0;" parent="1" edge="1">
          <mxGeometry relative="1" as="geometry">
            <Array as="points">
              <mxPoint x="690" y="700" />
            </Array>
            <mxPoint x="402.5" y="700" as="sourcePoint" />
            <mxPoint x="759.5" y="700" as="targetPoint" />
          </mxGeometry>
        </mxCell>
        <mxCell id="O33Dg_AS-0g0KVgm5leG-10" value="INJI App" style="shape=umlLifeline;perimeter=lifelinePerimeter;whiteSpace=wrap;html=1;container=1;dropTarget=0;collapsible=0;recursiveResize=0;outlineConnect=0;portConstraint=eastwest;newEdgeStyle={&quot;edgeStyle&quot;:&quot;elbowEdgeStyle&quot;,&quot;elbow&quot;:&quot;vertical&quot;,&quot;curved&quot;:0,&quot;rounded&quot;:0};participant=process;verticalAlign=middle;strokeColor=default;shadow=0;dashed=0;strokeWidth=2;labelBackgroundColor=#ffffff;fillColor=default;fontColor=default;sketch=0;gradientColor=none;fontStyle=0;rounded=1;" parent="1" vertex="1">
          <mxGeometry x="360" y="50" width="85" height="790" as="geometry" />
        </mxCell>
        <mxCell id="5p-cQJ673VyFYiMfOKw3-7" value="Returns transaction id, client details, auth factors,&lt;br&gt;claims, scopes, configs etc" style="edgeStyle=elbowEdgeStyle;rounded=1;orthogonalLoop=1;jettySize=auto;html=1;elbow=vertical;curved=0;endArrow=open;endSize=12;dashed=1;" parent="1" source="O33Dg_AS-0g0KVgm5leG-20" target="O33Dg_AS-0g0KVgm5leG-10" edge="1">
          <mxGeometry relative="1" as="geometry">
            <Array as="points">
              <mxPoint x="530" y="320" />
            </Array>
          </mxGeometry>
        </mxCell>
        <mxCell id="5p-cQJ673VyFYiMfOKw3-16" value="Returns transaction id after successful authentication" style="edgeStyle=elbowEdgeStyle;rounded=1;orthogonalLoop=1;jettySize=auto;html=1;elbow=vertical;curved=0;endArrow=open;endSize=12;dashed=1;" parent="1" source="O33Dg_AS-0g0KVgm5leG-20" target="O33Dg_AS-0g0KVgm5leG-10" edge="1">
          <mxGeometry relative="1" as="geometry">
            <Array as="points">
              <mxPoint x="480" y="650" />
              <mxPoint x="570" y="660" />
            </Array>
          </mxGeometry>
        </mxCell>
        <mxCell id="5p-cQJ673VyFYiMfOKw3-17" value="Returns success response" style="edgeStyle=elbowEdgeStyle;rounded=1;orthogonalLoop=1;jettySize=auto;html=1;elbow=vertical;curved=0;endArrow=open;endSize=12;dashed=1;" parent="1" edge="1">
          <mxGeometry relative="1" as="geometry">
            <Array as="points">
              <mxPoint x="510" y="740" />
            </Array>
            <mxPoint x="759.5" y="740" as="sourcePoint" />
            <mxPoint x="402.5" y="740" as="targetPoint" />
          </mxGeometry>
        </mxCell>
        <mxCell id="O33Dg_AS-0g0KVgm5leG-20" value="ESIGNET" style="shape=umlLifeline;perimeter=lifelinePerimeter;whiteSpace=wrap;html=1;container=1;dropTarget=0;collapsible=0;recursiveResize=0;outlineConnect=0;portConstraint=eastwest;newEdgeStyle={&quot;edgeStyle&quot;:&quot;elbowEdgeStyle&quot;,&quot;elbow&quot;:&quot;vertical&quot;,&quot;curved&quot;:0,&quot;rounded&quot;:0};" parent="1" vertex="1">
          <mxGeometry x="710" y="50" width="100" height="790" as="geometry" />
        </mxCell>
        <mxCell id="5p-cQJ673VyFYiMfOKw3-11" value="Performs 1:1 offline face auth&amp;nbsp;&lt;br&gt;against VC image" style="html=1;align=left;spacingLeft=2;endArrow=block;rounded=0;edgeStyle=orthogonalEdgeStyle;curved=0;rounded=0;" parent="1" source="O33Dg_AS-0g0KVgm5leG-10" target="O33Dg_AS-0g0KVgm5leG-10" edge="1">
          <mxGeometry x="0.0065" relative="1" as="geometry">
            <mxPoint x="410" y="410" as="sourcePoint" />
            <Array as="points">
              <mxPoint x="455" y="410" />
              <mxPoint x="455" y="460" />
            </Array>
            <mxPoint as="offset" />
          </mxGeometry>
        </mxCell>
        <mxCell id="r1qm4usT77PlBwmvxgnE-2" style="edgeStyle=elbowEdgeStyle;rounded=0;orthogonalLoop=1;jettySize=auto;html=1;elbow=vertical;curved=0;" edge="1" parent="1" source="O33Dg_AS-0g0KVgm5leG-10" target="O33Dg_AS-0g0KVgm5leG-6">
          <mxGeometry relative="1" as="geometry">
            <Array as="points">
              <mxPoint x="170.5" y="790" />
            </Array>
            <mxPoint x="362" y="790" as="sourcePoint" />
            <mxPoint x="80" y="790" as="targetPoint" />
          </mxGeometry>
        </mxCell>
        <mxCell id="r1qm4usT77PlBwmvxgnE-3" value="Show user logged in to relying party portal&lt;br style=&quot;border-color: var(--border-color);&quot;&gt;with relying party logo" style="edgeLabel;html=1;align=center;verticalAlign=middle;resizable=0;points=[];" vertex="1" connectable="0" parent="r1qm4usT77PlBwmvxgnE-2">
          <mxGeometry x="0.4007" y="-1" relative="1" as="geometry">
            <mxPoint x="61" as="offset" />
          </mxGeometry>
        </mxCell>
      </root>
    </mxGraphModel>
  </diagram>
</mxfile>
